<svg width="128px" height="128px" viewBox="0 0 128 128" fill="none" xmlns="http://www.w3.org/2000/svg">
<path d="M16.4372 32.8403C16.4372 31.7358 17.3326 30.8403 18.4372 30.8403H114.499C115.603 30.8403 116.499 31.7358 116.499 32.8403V94.8C116.499 95.9046 115.603 96.8 114.499 96.8H18.4372C17.3326 96.8 16.4372 95.9046 16.4372 94.8V32.8403Z" fill="black"/>
<path d="M11.5015 27.7323C11.5015 26.6277 12.3969 25.7323 13.5015 25.7323H109.563C110.667 25.7323 111.563 26.6277 111.563 27.7323V89.692C111.563 90.7966 110.667 91.692 109.563 91.692H13.5015C12.3969 91.692 11.5015 90.7966 11.5015 89.692V27.7323Z" fill="white"/>
<path fill-rule="evenodd" clip-rule="evenodd" d="M13.5015 23.7323H109.563C111.772 23.7323 113.563 25.5232 113.563 27.7323V89.692C113.563 91.9011 111.772 93.692 109.563 93.692H13.5015C11.2923 93.692 9.50146 91.9011 9.50146 89.692V27.7323C9.50146 25.5232 11.2923 23.7323 13.5015 23.7323ZM13.5015 25.7323C12.3969 25.7323 11.5015 26.6277 11.5015 27.7323V89.692C11.5015 90.7966 12.3969 91.692 13.5015 91.692H109.563C110.667 91.692 111.563 90.7966 111.563 89.692V27.7323C111.563 26.6277 110.667 25.7323 109.563 25.7323H13.5015Z" fill="black"/>
<path fill-rule="evenodd" clip-rule="evenodd" d="M26.8794 49.5522C26.8794 48.9999 27.3271 48.5522 27.8794 48.5522H95.1852C95.7375 48.5522 96.1852 48.9999 96.1852 49.5522C96.1852 50.1045 95.7375 50.5522 95.1852 50.5522H27.8794C27.3271 50.5522 26.8794 50.1045 26.8794 49.5522Z" fill="black"/>
<path fill-rule="evenodd" clip-rule="evenodd" d="M47.5197 38.2961C47.5197 37.7439 47.9674 37.2961 48.5197 37.2961H72.7497C73.302 37.2961 73.7497 37.7439 73.7497 38.2961C73.7497 38.8484 73.302 39.2961 72.7497 39.2961H48.5197C47.9674 39.2961 47.5197 38.8484 47.5197 38.2961Z" fill="black"/>
<path fill-rule="evenodd" clip-rule="evenodd" d="M26.8794 54.7123C26.8794 54.1601 27.3271 53.7123 27.8794 53.7123H95.1852C95.7375 53.7123 96.1852 54.1601 96.1852 54.7123C96.1852 55.2646 95.7375 55.7123 95.1852 55.7123H27.8794C27.3271 55.7123 26.8794 55.2646 26.8794 54.7123Z" fill="black"/>
<path fill-rule="evenodd" clip-rule="evenodd" d="M26.8794 60.789C26.8794 60.2367 27.3271 59.789 27.8794 59.789H95.1852C95.7375 59.789 96.1852 60.2367 96.1852 60.789C96.1852 61.3413 95.7375 61.789 95.1852 61.789H27.8794C27.3271 61.789 26.8794 61.3413 26.8794 60.789Z" fill="black"/>
<path fill-rule="evenodd" clip-rule="evenodd" d="M26.8794 66.8466C26.8794 66.2943 27.3271 65.8466 27.8794 65.8466H95.1852C95.7375 65.8466 96.1852 66.2943 96.1852 66.8466C96.1852 67.3989 95.7375 67.8466 95.1852 67.8466H27.8794C27.3271 67.8466 26.8794 67.3989 26.8794 66.8466Z" fill="black"/>
<path fill-rule="evenodd" clip-rule="evenodd" d="M26.8794 72.455C26.8794 71.9027 27.3271 71.455 27.8794 71.455H59.2888C59.8411 71.455 60.2888 71.9027 60.2888 72.455C60.2888 73.0073 59.8411 73.455 59.2888 73.455H27.8794C27.3271 73.455 26.8794 73.0073 26.8794 72.455Z" fill="black"/>
<path d="M89.4537 80.1978H100.223V99.2677L94.8382 93.8833L89.4537 99.2677V80.1978Z" fill="white"/>
<path fill-rule="evenodd" clip-rule="evenodd" d="M87.4537 80.1978C87.4537 79.0932 88.3492 78.1978 89.4537 78.1978H100.223C101.327 78.1978 102.223 79.0932 102.223 80.1978V99.2677C102.223 100.077 101.735 100.806 100.988 101.115C100.241 101.425 99.3804 101.254 98.8085 100.682L94.8382 96.7117L90.8679 100.682C90.296 101.254 89.4357 101.425 88.6884 101.115C87.941 100.806 87.4537 100.077 87.4537 99.2677V80.1978ZM94.8382 93.8833L100.223 99.2677V80.1978H89.4537V99.2677L94.8382 93.8833Z" fill="black"/>
<path d="M103.935 80.8109C103.935 85.7052 100.017 89.6728 95.1851 89.6728C90.3527 89.6728 86.4353 85.7052 86.4353 80.8109C86.4353 75.9166 90.3527 71.949 95.1851 71.949C100.017 71.949 103.935 75.9166 103.935 80.8109Z" fill="white"/>
<path fill-rule="evenodd" clip-rule="evenodd" d="M105.935 80.8109C105.935 86.7857 101.146 91.6728 95.1851 91.6728C89.2242 91.6728 84.4353 86.7857 84.4353 80.8109C84.4353 74.8361 89.2242 69.949 95.1851 69.949C101.146 69.949 105.935 74.8361 105.935 80.8109ZM95.1851 89.6728C100.017 89.6728 103.935 85.7052 103.935 80.8109C103.935 75.9166 100.017 71.949 95.1851 71.949C90.3527 71.949 86.4353 75.9166 86.4353 80.8109C86.4353 85.7052 90.3527 89.6728 95.1851 89.6728Z" fill="black"/>
<path fill-rule="evenodd" clip-rule="evenodd" d="M101.858 80.8107C101.858 84.5047 98.8947 87.543 95.1857 87.543C91.4767 87.543 88.5133 84.5047 88.5133 80.8107C88.5133 77.1166 91.4767 74.0784 95.1857 74.0784C98.8947 74.0784 101.858 77.1166 101.858 80.8107ZM95.1857 85.543C97.7662 85.543 99.8581 83.4243 99.8581 80.8107C99.8581 78.1971 97.7662 76.0784 95.1857 76.0784C92.6052 76.0784 90.5133 78.1971 90.5133 80.8107C90.5133 83.4243 92.6052 85.543 95.1857 85.543Z" fill="black"/>
</svg>
